#!OML:ASF F:\VICON\USERDATA\INSTALL\rory3\rory3.ASF
:FULLY-SPECIFIED
:DEGREES
1715
root -2.07406 16.7332 29.4281 -512.702 -12.476 172.636
lowerback -23.4456 0.482191 -8.53965
upperback -24.8764 -7.88969 -4.17944
thorax -15.381 -6.74127 0.263303
lowerneck -2.72106 5.67301 -4.93899
upperneck -47.5195 -3.66512 0.83406
head -17.1295 -3.12408 2.44877
rclavicle -3.08116e-014 -1.70955e-014
rhumerus -50.0811 -30.3082 36.7687
rradius 13.3814
rwrist 72.587
rhand 26.8302 -5.84546
rfingers 7.12502
rthumb 50.836 -26.6179
lclavicle -3.08116e-014 -1.70955e-014
lhumerus -40.3851 -9.19677 -9.97604
lradius 19.356
lwrist -56.1832
lhand 17.0494 26.9193
lfingers 7.12502
lthumb 41.7771 51.5836
rfemur -253.563 -185.769 180.949
rtibia 42.8542
rfoot 303.429 -370.964
rtoes 62.983
lfemur -27.7043 2.15311 -37.6876
ltibia 28.1911
lfoot -38.9274 27.7146
ltoes -1.25987
1716
root -2.06802 16.7268 29.4283 -512.701 -12.2522 172.391
lowerback -23.5533 0.306031 -8.86642
upperback -24.4618 -7.72717 -4.0236
thorax -14.7335 -6.52034 0.528291
lowerneck -3.16171 5.67762 -5.0298
upperneck -47.369 -3.72474 0.697504
head -16.9399 -3.16187 2.39823
rclavicle 1.31198e-014 1.59028e-014
rhumerus -49.9075 -30.2709 36.0746
rradius 13.5059
rwrist 71.3586
rhand 26.619 -5.74592
rfingers 7.12502
rthumb 50.6433 -26.6242
lclavicle 1.31198e-014 1.59028e-014
lhumerus -40.7329 -8.78477 -9.24545
lradius 19.6498
lwrist -56.2252
lhand 16.8332 27.0441
lfingers 7.12502
lthumb 41.5744 51.7752
rfemur -253.587 -185.852 180.618
rtibia 42.8151
rfoot 303.501 -371.529
rtoes 62.9334
lfemur -27.7282 2.07292 -37.9481
ltibia 28.2988
lfoot -39.1209 27.8245
ltoes -1.37959
1717
root -2.06177 16.7209 29.4265 -512.744 -12.0131 172.224
lowerback -23.6889 0.205991 -8.94256
upperback -24.0149 -7.52551 -4.02636
thorax -14.0792 -6.3494 0.492728
lowerneck -3.6845 5.6272 -4.98169
upperneck -47.0507 -3.66627 0.749925
head -16.6213 -3.19121 2.38036
rclavicle -4.17448e-015 6.16232e-015
rhumerus -49.7073 -29.8157 34.7177
rradius 13.6096
rwrist 69.4409
rhand 26.3247 -5.4891
rfingers 7.12502
rthumb 50.3745 -26.513
lclavicle -4.17448e-015 6.16232e-015
lhumerus -41.0304 -8.5574 -8.78144
lradius 19.9984
lwrist -56.557
lhand 16.601 26.4322
lfingers 7.12502
lthumb 41.3564 51.2342
rfemur -253.617 -185.997 180.35
rtibia 42.8676
rfoot 303.635 -372.031
rtoes 62.7823
lfemur -27.5647 1.88929 -38.1084
ltibia 28.1601
lfoot -39.2839 27.9178
ltoes -1.26597
1718
root -2.05028 16.7182 29.4191 -512.91 -11.8824 172.263
lowerback -23.9878 0.0313442 -8.79393
upperback -23.3681 -7.31493 -4.00105
thorax -13.0991 -6.18353 0.32278
lowerneck -4.31161 5.6807 -4.91204
upperneck -46.9051 -3.54455 0.857248
head -16.3905 -3.2215 2.38911
rclavicle 2.00773e-014 1.27222e-014
rhumerus -50.3046 -30.3446 34.0421
rradius 13.7809
rwrist 68.4041
rhand 25.486 -5.00525
rfingers 7.12502
rthumb 49.607 -26.4319
lclavicle 2.00773e-014 1.27222e-014
lhumerus -41.5539 -8.79254 -7.70402
lradius 20.7153
lwrist -55.4865
lhand 16.3669 26.6403
lfingers 7.12502
lthumb 41.1367 51.5131
rfemur -253.549 -186.218 180.346
rtibia 42.9361
rfoot 303.909 -372.965
rtoes 62.5425
lfemur -27.2602 1.59016 -37.9615
ltibia 27.958
lfoot -39.6172 28.0246
ltoes -0.767001
1719
root -2.04468 16.7131 29.4185 -512.861 -11.8241 171.986
lowerback -24.6317 -0.316062 -8.96131
upperback -22.469 -7.13008 -3.98702
thorax -11.6578 -5.97641 0.238065
lowerneck -5.42974 5.70898 -4.95878
upperneck -46.6517 -3.50453 0.960911
head -15.9936 -3.29624 2.41177
rclavicle -2.36554e-014 1.19271e-014
rhumerus -51.193 -31.4412 33.5392
rradius 13.8651
rwrist 67.4083
rhand 24.4225 -4.86979
rfingers 7.12502
rthumb 48.6304 -26.783
lclavicle -2.36554e-014 1.19271e-014
lhumerus -42.1796 -8.33828 -6.03134
lradius 21.6844
lwrist -53.6393
lhand 16.1602 27.9416
lfingers 7.12502
lthumb 40.9426 52.8762
rfemur -253.608 -186.139 180.06
rtibia 43.0466
rfoot 304.046 -373.378
rtoes 62.4098
lfemur -27.1158 1.53053 -38.2348
ltibia 27.7248
lfoot -39.3667 28.2509
ltoes -1.23942
1720
root -2.03342 16.7091 29.4324 -512.675 -11.9895 171.792
lowerback -25.1883 -0.751319 -9.18233
upperback -21.6243 -7.05946 -3.78521
thorax -10.3242 -5.79655 0.388827
lowerneck -6.94688 5.58433 -5.01042
upperneck -45.8306 -3.54379 0.855144
head -15.2075 -3.38107 2.30496
rclavicle 4.73108e-014 2.10712e-014
rhumerus -52.2688 -33.1153 33.6422
rradius 13.9774
rwrist 67.0397
rhand 23.3473 -4.22187
rfingers 7.12502
rthumb 47.6397 -26.6011
lclavicle 4.73108e-014 2.10712e-014
lhumerus -43.9127 -11.801 -2.81133
lradius 23.6282
lwrist -47.8629
lhand 16.269 28.8282
lfingers 7.12502
lthumb 41.0448 53.7304
rfemur -253.754 -185.866 179.942
rtibia 43.0778
rfoot 304.065 -373.541
rtoes 62.3551
lfemur -27.2512 1.48032 -38.3722
ltibia 27.6166
lfoot -39.397 28.094
ltoes -1.18891
1721
root -2.02595 16.7118 29.4299 -513.273 -11.8778 171.794
lowerback -25.0805 -1.00571 -9.31498
upperback -20.4931 -6.76759 -3.46207
thorax -9.63731 -5.47337 0.71026
lowerneck -8.16072 5.36605 -5.22082
upperneck -44.767 -3.52326 0.774369
head -14.3891 -3.38031 2.22402
rclavicle -5.6753e-014 -8.15017e-014
rhumerus -52.9678 -34.2292 33.5924
rradius 14.0613
rwrist 66.1997
rhand 22.2779 -3.07948
rfingers 7.12502
rthumb 46.6509 -25.898
lclavicle -5.6753e-014 -8.15017e-014
lhumerus -43.5567 -6.54934 -3.50277
lradius 23.4276
lwrist -52.2492
lhand 15.5966 27.9719
lfingers 7.12502
lthumb 40.4129 53.0721
rfemur -253.176 -186.209 179.974
rtibia 43.0958
rfoot 303.986 -373.308
rtoes 62.3429
lfemur -26.5707 1.81844 -38.3626
ltibia 27.5504
lfoot -39.7665 27.7743
ltoes -0.349019
1722
root -2.0225 16.7127 29.4376 -513.46 -11.8646 172.056
lowerback -25.2186 -1.07482 -9.16272
upperback -19.9787 -6.49151 -3.24419
thorax -8.8575 -5.24457 0.829345
lowerneck -8.85119 5.07578 -5.41724
upperneck -43.6717 -3.43407 0.838989
head -13.6846 -3.32627 2.20435
rclavicle -1.85864e-014 -7.93151e-014
rhumerus -52.3905 -33.0145 31.1943
rradius 14.1572
rwrist 62.6258
rhand 21.0408 -2.00366
rfingers 7.12502
rthumb 45.5034 -25.3021
lclavicle -1.85864e-014 -7.93151e-014
lhumerus -44.1928 -5.91592 -2.45245
lradius 24.3959
lwrist -51.7942
lhand 14.982 26.772
lfingers 7.12502
lthumb 39.8347 52.0477
rfemur -253.052 -186.396 180.204
rtibia 43.011
rfoot 303.86 -373.12
rtoes 62.3253
lfemur -26.5323 1.84442 -38.0898
ltibia 27.6283
lfoot -39.8425 27.8573
ltoes -0.458827
1723
root -2.01608 16.7088 29.4464 -513.412 -11.8779 172.206
lowerback -25.5103 -1.13797 -9.00326
upperback -19.4752 -6.25865 -3.17786
thorax -8.05861 -5.07685 0.764931
lowerneck -9.69057 4.7826 -5.4685
upperneck -42.5216 -3.33896 0.960844
head -12.9518 -3.3002 2.17795
rclavicle 5.04913e-014 4.96962e-014
rhumerus -51.9661 -31.5759 28.5098
rradius 14.3
rwrist 58.9956
rhand 19.3151 -1.13769
rfingers 7.12502
rthumb 43.8965 -25.0591
lclavicle 5.04913e-014 4.96962e-014
lhumerus -44.7096 -5.30881 -1.47064
lradius 25.3578
lwrist -51.0835
lhand 14.1394 25.6736
lfingers 7.12502
lthumb 39.041 51.1819
rfemur -253.127 -186.445 180.337
rtibia 42.9129
rfoot 303.689 -372.617
rtoes 62.3978
lfemur -26.7472 1.68909 -37.8923
ltibia 27.7487
lfoot -40.0631 27.7886
ltoes -0.13632
1724
root -2.00501 16.7068 29.4555 -513.423 -12.0115 172.175
lowerback -25.7859 -1.30484 -8.79865
upperback -18.7589 -6.08705 -3.2725
thorax -7.0271 -4.93646 0.471195
lowerneck -11.1234 4.50892 -5.35974
upperneck -41.1691 -3.23452 1.10676
head -12.0524 -3.31963 2.1151
rclavicle 3.54831e-014 8.15017e-015
rhumerus -52.066 -30.687 25.9824
rradius 14.4967
rwrist 55.6908
rhand 16.9377 -0.565473
rfingers 7.12502
rthumb 41.6723 -25.2644
lclavicle 3.54831e-014 8.15017e-015
lhumerus -45.1544 -4.23947 -0.797201
lradius 26.2411
lwrist -50.4513
lhand 13.0462 24.7322
lfingers 7.12502
lthumb 38.0095 50.5289
rfemur -253.026 -186.357 180.379
rtibia 42.7968
rfoot 303.412 -371.485
rtoes 62.5977
lfemur -26.884 1.61434 -37.8462
ltibia 27.9695
lfoot -40.1683 27.6668
ltoes -0.168936
